<?xml version="1.0" standalone="no"?>
<!DOCTYPE svg PUBLIC "-//W3C//DTD SVG 20010904//EN"
 "http://www.w3.org/TR/2001/REC-SVG-20010904/DTD/svg10.dtd">
<svg version="1.0" xmlns="http://www.w3.org/2000/svg"
 width="512.000000pt" height="512.000000pt" viewBox="0 0 512.000000 512.000000"
 preserveAspectRatio="xMidYMid meet">

<g transform="translate(0.000000,512.000000) scale(0.100000,-0.100000)"
fill="#000000" stroke="none">
<path d="M3397 5106 c-87 -32 -154 -115 -182 -223 -13 -52 -15 -126 -13 -479
3 -403 4 -421 24 -459 11 -22 40 -53 63 -70 37 -26 51 -30 111 -30 60 0 74 4
111 30 23 17 52 48 63 70 20 39 21 56 24 488 l3 447 -41 0 -40 0 0 -425 c0
-454 -1 -467 -50 -510 -15 -14 -36 -20 -70 -20 -54 0 -84 20 -106 72 -22 51
-20 799 2 874 30 104 101 169 184 169 121 0 200 -122 200 -307 l0 -83 41 0 42
0 -5 113 c-7 167 -54 264 -154 323 -55 32 -150 41 -207 20z"/>
<path d="M3040 4765 l0 -115 40 0 40 0 0 115 0 115 -40 0 -40 0 0 -115z"/>
<path d="M4115 3686 c-220 -184 -583 -599 -697 -798 -18 -32 -36 -58 -39 -58
-3 0 -18 28 -34 63 -43 92 -104 182 -136 201 -34 20 -79 12 -129 -24 -38 -27
-38 -34 0 -50 70 -29 117 -106 195 -320 26 -68 48 -126 50 -128 2 -2 32 18 67
43 55 41 67 56 98 123 133 292 305 523 643 868 107 109 109 112 95 137 l-13
26 -100 -83z"/>
</g>
</svg>
